<?xml version="1.0" encoding="utf-8"?>
<!-- Generator: Adobe Illustrator 25.0.0, SVG Export Plug-In . SVG Version: 6.00 Build 0)  -->
<svg version="1.1" id="Layer_1" xmlns="http://www.w3.org/2000/svg" xmlns:xlink="http://www.w3.org/1999/xlink" x="0px" y="0px"
	 viewBox="0 0 170.08 170.08" style="enable-background:new 0 0 170.08 170.08;" xml:space="preserve">
<style type="text/css">
	.st0{fill:#FEFEFE;}
	.st1{fill:#0C0B0A;}
	.st2{fill:#090509;}
	.st3{fill:#0C070B;}
	.st4{fill:#F6FAFD;}
	.st5{fill:#F7FBFD;}
	.st6{fill:#FBE77D;}
	.st7{fill:#0E0C09;}
	.st8{fill:#E9B3AD;}
	.st9{fill:#F1CECA;}
	.st10{fill:#77C7EF;}
	.st11{fill:#53A1D8;}
	.st12{fill:#F7C516;}
	.st13{fill:#E6B1AB;}
	.st14{fill:#E93A7F;}
	.st15{fill:#F6C417;}
	.st16{fill:#529FD4;}
	.st17{fill:#D8CADC;}
	.st18{fill:#EEE4EE;}
	.st19{fill:#EC4083;}
	.st20{fill:#0E0E04;}
	.st21{fill:#F9E47B;}
	.st22{fill:#D79591;}
	.st23{fill:#0C0A0A;}
	.st24{fill:#151110;}
	.st25{fill:#0F0C0B;}
	.st26{fill:#F6F6F5;}
	.st27{fill:#F3F2F1;}
</style>
<g>
	<g>
		<path class="st0" d="M12.55,170.07c-4.08,0-8.16,0-12.25,0c0-56.59,0-113.18,0-169.78c56.59,0,113.18,0,169.78,0
			c0,56.59,0,113.18,0,169.78c-4.08,0-8.16,0-12.25,0c1.93-1.37,2.12-2.03,1.31-4.42c-0.48-1.4-1-2.79-1.46-4.19
			c-3.76-11.41-10.53-19.81-22.71-22.88c-0.39-0.1-0.69-0.72-0.95-1.15c-0.74-1.26-1.13-2.98-2.21-3.72
			c-2.2-1.51-3.84-3.54-5.85-5.2c-0.96-0.79-2.08-1.46-3.22-1.98c-4.49-2.01-9.23-2.44-14.06-1.94c-2.69,0.28-5.36,0.74-8.22,1.15
			c0.19-1.17,0.36-2.18,0.52-3.17c0.26-0.08,0.41-0.14,0.57-0.18c5.84-1.34,11.33-3.46,16.14-7.13c1.74-1.33,1.94-2.08,1.06-4.09
			c1.12-1.24,2.24-2.47,3.36-3.71c2,0.5,2.76,0.18,3.77-1.62c0.3-0.53,0.58-1.06,0.85-1.6c1.96-4.04,3.14-8.3,3.67-12.76
			c0.09-0.75-0.05-1.65,1.17-1.85c11.27-1.9,16.68-16.94,8.13-26.08c-0.36-0.39-0.54-1.13-0.49-1.68c0.21-2.8,0.71-5.58,0.76-8.38
			c0.19-10.71-3.32-19.95-11.21-27.39c-0.34-0.32-0.51-1.17-0.35-1.61c2.5-6.74,3.49-13.72,3.64-20.86
			c0.03-1.29-0.31-2.32-1.54-2.83c-1.22-0.51-2.21-0.04-3.09,0.89c-2.13,2.25-4.75,3.69-7.69,4.62c-5.48,1.74-11.13,1.8-16.7,1.08
			c-8.17-1.05-16.27-2.62-24.4-4.01c-2.07-0.35-2.81-0.05-3.86,1.86c-2.01-0.35-4.02-0.7-6.03-1.05c-0.1-1.54-0.73-2.65-2.38-2.89
			c-4.54-0.67-9.08-0.96-13.67-0.35c-6.54,0.86-11.22,4.6-12.83,10.49c-1.16,4.25-0.72,8.51-0.03,12.78
			c0.1,0.62-0.09,1.59-0.51,1.95c-4.11,3.47-6.59,7.91-7.89,13.05c-1.81,7.18-1.14,14.31,0.6,21.4c0.29,1.18,0.22,2-0.75,3
			c-7.45,7.69-4.68,21.44,5.3,25.1c3.01,1.11,3.71,2.6,4.2,5.39c2.02,11.68,8.21,20.37,19.2,25.24c3.13,1.39,6.47,2.31,9.82,3.48
			c0.12,0.88,0.25,1.89,0.39,2.98c-0.54-0.06-0.87-0.08-1.19-0.14c-4.82-1.01-9.66-1.65-14.59-0.92c-4.72,0.69-8.9,2.38-11.93,6.3
			c-0.34,0.44-0.91,0.75-1.44,0.97c-2.33,0.99-3.99,2.65-4.54,5.09c-0.27,1.22-0.84,1.57-1.86,1.87
			c-7.46,2.21-13.66,6.25-17.35,13.26c-2.21,4.2-3.76,8.75-5.63,13.13C10.88,167.17,10.93,168.76,12.55,170.07z"/>
		<path class="st1" d="M12.55,170.07c-1.62-1.31-1.67-2.9-0.9-4.7c1.88-4.38,3.42-8.93,5.63-13.13c3.69-7.01,9.88-11.05,17.35-13.26
			c1.02-0.3,1.59-0.66,1.86-1.87c0.55-2.44,2.21-4.1,4.54-5.09c0.53-0.22,1.1-0.54,1.44-0.97c3.03-3.92,7.21-5.61,11.93-6.3
			c4.93-0.73,9.77-0.09,14.59,0.92c0.32,0.07,0.65,0.08,1.19,0.14c-0.14-1.08-0.28-2.09-0.39-2.98c-3.34-1.17-6.68-2.09-9.82-3.48
			c-10.99-4.87-17.19-13.57-19.2-25.24c-0.48-2.79-1.18-4.29-4.2-5.39c-9.98-3.66-12.75-17.41-5.3-25.1c0.97-1,1.04-1.81,0.75-3
			c-1.74-7.08-2.41-14.22-0.6-21.4c1.3-5.14,3.78-9.58,7.89-13.05c0.43-0.36,0.61-1.33,0.51-1.95c-0.69-4.27-1.12-8.53,0.03-12.78
			c1.61-5.9,6.28-9.63,12.83-10.49c4.59-0.6,9.13-0.31,13.67,0.35c1.65,0.24,2.28,1.36,2.38,2.89c-1,2.02-1.66,2.18-4.28,2.02
			c-3.67-0.23-7.37-0.47-11.03-0.24c-5.75,0.37-9.07,3.93-9.08,9.71c-0.01,3.17,0.53,6.34,0.89,9.5c0.17,1.46,0.46,2.86-1.1,3.81
			c-3.86,2.36-6.13,5.91-7.45,10.13c-2.12,6.8-1.36,13.58,0.21,20.48c0.72-0.2,1.34-0.46,1.97-0.51c1.48-0.11,1.71-0.96,1.84-2.28
			c0.28-2.72,0.63-5.48,1.35-8.11c1.91-7.03,5.59-12.87,11.98-16.74c1.49-0.9,2.8-0.99,4.48-0.28c4.44,1.87,8.94,3.65,13.52,5.15
			c5.48,1.8,11.09,3.18,16.89,3.5c1.02,0.12,2.04,0.28,3.07,0.34c2.02,0.12,2.69,0.68,3.05,2.65c-0.27,1.71-1.27,2.48-2.98,2.34
			c-1.87-0.14-3.74-0.18-5.6-0.43c-9.74-1.33-19.09-4.09-28.04-8.1c-1.7-0.77-2.78-0.49-4.07,0.62c-4.53,3.93-7.13,8.98-8.01,14.76
			c-0.75,4.99-1.09,10.08-1.19,15.13c-0.15,7.76-0.34,15.55,0.21,23.28c0.89,12.61,8.85,21.9,20.97,25.56
			c8.63,2.6,17.44,2.89,26.32,2.19c2.87-0.23,5.7-1,8.55-1.53c0.38-0.03,0.78,0.01,1.14-0.09c4.41-1.23,8.62-2.91,12.26-5.77
			c1.4-1.1,2.73-1.3,4.13-0.09c0.88,2,0.69,2.75-1.06,4.09c-4.81,3.67-10.31,5.79-16.14,7.13c-0.16,0.04-0.31,0.1-0.57,0.18
			c-0.16,0.98-0.33,1.99-0.52,3.17c2.85-0.4,5.53-0.87,8.22-1.15c4.83-0.5,9.57-0.08,14.06,1.94c1.14,0.51,2.26,1.18,3.22,1.98
			c2.01,1.66,3.66,3.69,5.85,5.2c1.08,0.74,1.47,2.47,2.21,3.72c0.25,0.43,0.56,1.05,0.95,1.15c12.17,3.08,18.95,11.47,22.71,22.88
			c0.46,1.41,0.98,2.79,1.46,4.19c0.82,2.39,0.62,3.05-1.31,4.42c-0.55,0-1.1,0-1.65,0c-0.58-0.84-1.15-1.68-1.73-2.52
			c-0.76-2.16-1.5-4.33-2.27-6.49c-3.34-9.24-9.36-15.58-19.34-17.74c-1.2,1.82-3.1,2.69-5.21,3.22c-2.35,0-4.46-0.64-6.24-2.24
			c-0.1-0.1-0.21-0.21-0.31-0.31l-0.03-0.03c-0.35-0.61-0.86-1.18-1.03-1.84c-0.29-1.14-1.06-1.4-2.05-1.46
			c-3.99-0.23-7.99-0.42-11.98-0.74c-1.54-0.12-2.78,0.21-3.8,1.36c-4.36,2.61-9.07,4.09-14.14,4.44c-7.4,0.51-14.31-0.89-20.5-5.18
			c-0.42-0.29-0.97-0.62-1.45-0.59c-4.67,0.24-9.34,0.56-14.01,0.84c-0.87,0.05-1.28,0.42-1.64,1.27c-1.36,3.17-4.75,5.05-8.07,4.19
			c-1.82-0.47-3.45-1.65-5.55-2.71c-5.94,1.65-11.7,4.71-14.97,10.87c-2.22,4.18-3.75,8.73-5.59,13.11
			c-0.69,0.86-1.39,1.71-2.08,2.57C13.65,170.07,13.1,170.07,12.55,170.07z M126.39,136.69c-1.3,0.08-1.92,0.86-2.03,2.07
			c-0.11,1.27,0.33,2.22,1.69,2.53c0.86-0.24,2.06-0.22,2.5-0.79c0.48-0.61,0.61-1.98,0.23-2.65
			C128.43,137.22,127.22,137.06,126.39,136.69z M43.32,136.69c-1.3,0.08-1.92,0.86-2.03,2.07c-0.11,1.27,0.33,2.22,1.69,2.53
			c0.86-0.24,2.06-0.22,2.5-0.79c0.48-0.61,0.61-1.98,0.23-2.65C45.36,137.22,44.15,137.06,43.32,136.69z M88.72,124
			c-4.53-0.13-9.05-0.25-13.4-0.37c-0.23,2.35-0.16,4.76-0.76,7c-0.61,2.27-1.86,4.36-2.89,6.65c7.16,3.89,14.72,4.89,22.65,2.03
			c1.67-0.7,3.34-1.4,5.16-2.16c-3.51-4.2-4.23-8.82-3.85-13.73C93.18,123.62,90.95,123.81,88.72,124z M39.97,84.42
			c0-6.84,0-13.64,0-20.39c-4.92,1.21-8.17,5.68-7.9,11.11C32.29,79.57,35.82,83.88,39.97,84.42z M69.14,130.88
			c-10.03-2.58-18.39-1.38-21.16,1.87c0.68,0.8,1.29,1.65,2.05,2.35c0.4,0.37,1.05,0.69,1.57,0.67c4.07-0.21,8.12-0.57,12.19-0.75
			C66.9,134.87,67.99,134.14,69.14,130.88z M101.55,130.78c1.06,3.22,2.24,4.08,5.21,4.22c4.07,0.2,8.13,0.51,12.2,0.72
			c0.45,0.02,1.04-0.18,1.35-0.49c0.88-0.88,1.65-1.86,2.55-2.91C116.09,128.09,108.89,129.39,101.55,130.78z"/>
		<path class="st2" d="M118.78,170.07c-0.66,0-1.32,0-1.99,0c-0.57-0.8-1.13-1.61-1.7-2.41c0.64-2.02,1.28-4.03,1.96-6.19
			c-0.73-0.13-1.31-0.28-1.89-0.33c-4.77-0.39-9.54-0.97-14.31-1.1c-9.08-0.24-18.16-0.26-27.25-0.28
			c-2.23-0.01-2.93-0.27-3.76-2.35c0.66-2.27,0.95-2.55,3.3-2.63c3.52-0.13,7.05-0.23,10.58-0.26c12.13-0.1,24.22,0.48,36.23,2.3
			c2.2,0.33,2.96,1.35,2.46,3.54c-0.55,2.39-1.28,4.74-1.93,7.11C119.91,168.34,119.35,169.21,118.78,170.07z"/>
		<path class="st0" d="M115.1,167.66c0.57,0.8,1.13,1.61,1.7,2.41c-20.96,0-41.92,0-62.88,0c0.46-0.8,0.92-1.61,1.38-2.41
			C75.23,167.66,95.16,167.66,115.1,167.66z"/>
		<path class="st3" d="M55.29,167.66c-0.46,0.8-0.92,1.61-1.38,2.41c-0.77,0-1.54,0-2.32,0c-0.56-0.87-1.12-1.73-1.68-2.6
			c-0.08-0.31-0.16-0.63-0.24-0.94c-0.59-2.22-1.28-4.41-1.73-6.66c-0.33-1.61,0.55-2.82,2.03-3.01c3.64-0.49,7.29-0.88,10.94-1.35
			c1.84-0.23,3.11,0.36,3.62,2.24c-0.19,1.46-0.87,2.5-2.43,2.69c-1.26,0.16-2.52,0.22-3.78,0.37c-1.61,0.19-3.22,0.41-4.95,0.64
			C54.06,163.69,54.68,165.68,55.29,167.66z"/>
		<path class="st4" d="M118.78,170.07c0.57-0.87,1.13-1.74,1.7-2.61c8.48-0.02,16.97-0.04,25.45-0.05c2.84,0.05,5.68,0.09,8.52,0.14
			c0.58,0.84,1.15,1.68,1.73,2.52C143.71,170.07,131.25,170.07,118.78,170.07z"/>
		<path class="st5" d="M49.92,167.47c0.56,0.87,1.12,1.73,1.68,2.6c-12.47,0-24.93,0-37.4,0c0.69-0.86,1.39-1.71,2.08-2.57
			C27.5,167.49,38.71,167.48,49.92,167.47z"/>
		<path class="st6" d="M88.94,40.32c-5.81-0.32-11.41-1.69-16.89-3.5c-4.58-1.51-9.08-3.28-13.52-5.15c-1.68-0.71-3-0.62-4.48,0.28
			c-6.4,3.87-10.07,9.71-11.98,16.74c-0.72,2.63-1.06,5.39-1.35,8.11c-0.14,1.32-0.36,2.17-1.84,2.28
			c-0.63,0.05-1.24,0.32-1.97,0.51c-1.57-6.9-2.33-13.67-0.21-20.48c1.31-4.23,3.58-7.78,7.45-10.13c1.56-0.95,1.26-2.36,1.1-3.81
			c-0.36-3.16-0.9-6.33-0.89-9.5c0.02-5.77,3.33-9.34,9.08-9.71c3.66-0.23,7.36,0.01,11.03,0.24c2.61,0.16,3.28,0,4.28-2.02
			c2.01,0.35,4.02,0.7,6.03,1.05c0.05,1.54,0.65,2.67,2.28,2.98c9.5,1.81,18.94,3.94,28.65,4.44c7.07,0.36,13.95-0.23,20.37-3.54
			c-0.11,0.53-0.17,1.09-0.35,1.6c-4.85,13.3-13.66,22.69-27.23,27.24C95.39,39.01,92.13,39.55,88.94,40.32z M95.44,33.93
			c2.41-0.33,4.52-0.44,6.53-0.92c5.81-1.39,10.13-4.64,12.15-10.46c0.59-1.72-0.12-3.1-1.63-3.56c-1.34-0.4-2.47,0.3-3.07,1.98
			c-1.13,3.15-3.3,5.27-6.38,6.47c-2.86,1.11-5.85,1.51-8.9,1.15c-2.39-0.28-4.77-0.72-7.15-1.11c-1.73-0.28-3.05,0.47-3.3,1.9
			c-0.27,1.54,0.52,2.69,2.3,3.01C89.22,32.97,92.48,33.45,95.44,33.93z"/>
		<path class="st7" d="M126.07,9.13c-6.42,3.31-13.31,3.9-20.37,3.54c-9.7-0.5-19.15-2.63-28.65-4.44
			c-1.63-0.31-2.23-1.45-2.28-2.98c1.04-1.91,1.79-2.21,3.86-1.86c8.13,1.39,16.23,2.96,24.4,4.01c5.56,0.71,11.21,0.66,16.7-1.08
			c2.94-0.93,5.56-2.37,7.69-4.62c0.88-0.93,1.87-1.4,3.09-0.89c1.22,0.51,1.56,1.54,1.54,2.83c-0.15,7.14-1.14,14.13-3.64,20.86
			c-0.17,0.45,0.01,1.29,0.35,1.61c7.89,7.44,11.41,16.67,11.21,27.39c-0.05,2.8-0.55,5.58-0.76,8.38c-0.04,0.55,0.13,1.3,0.49,1.68
			c8.55,9.15,3.15,24.19-8.13,26.08c-1.22,0.21-1.08,1.1-1.17,1.85c-0.53,4.46-1.71,8.72-3.67,12.76c-0.26,0.54-0.55,1.08-0.85,1.6
			c-1.01,1.8-1.77,2.12-3.77,1.62c-1.56-1.6-1.67-2.17-0.55-4.19c2.58-4.66,3.92-9.71,4.11-14.95c0.41-11.5,0.15-23.01-0.98-34.48
			c-0.41-4.19-1.79-8.16-4.74-11.37c-2.47-2.68-3.34-2.78-6.15-0.87c-2.94,1.02-5.85,2.13-8.83,3.03c-1.89,0.57-2.62,0.08-3.51-1.72
			c0.1-2.1,0.59-2.58,2.59-3.19c2.3-0.7,4.63-1.37,6.79-2.39c4.86-2.31,8.45-6.02,11.01-10.74c2.94-5.4,4.15-11.27,4.81-17.3
			C126.68,9.26,126.28,9.18,126.07,9.13z M130.97,84.02c0.34,0.11,0.74,0.38,1.03,0.29c3.95-1.27,6.58-5.01,6.81-9.57
			c0.25-4.88-3.02-9.5-7.47-10.54c-0.29-0.1-0.58-0.19-0.85-0.29C130.66,70.68,130.82,77.35,130.97,84.02z M126.55,31.18
			c-0.17-0.18-0.34-0.36-0.5-0.53c-0.24-0.02-0.61-0.15-0.69-0.05c-1.54,1.99-3.04,4-4.59,6.06c3.77,2.54,6.22,6.19,7.43,10.52
			c0.95,3.36,1.32,6.89,1.94,10.34c0.27,0.44,0.45,1.13,0.84,1.28c1.05,0.42,2.18,0.61,3.36,0.92c0.09-0.31,0.23-0.62,0.27-0.93
			c0.59-4.45,0.68-8.91-0.35-13.31C133,40.03,130.68,35.11,126.55,31.18L126.55,31.18z"/>
		<path class="st8" d="M113.8,41.61c2.81-1.91,3.68-1.81,6.15,0.87c2.96,3.21,4.33,7.17,4.74,11.37
			c1.13,11.46,1.39,22.97,0.98,34.48c-0.19,5.24-1.52,10.3-4.11,14.95c-1.12,2.02-1.01,2.6,0.55,4.19
			c-1.12,1.24-2.24,2.47-3.36,3.71c-1.4-1.22-2.73-1.01-4.13,0.09c-3.64,2.86-7.84,4.54-12.26,5.77c-0.36,0.1-0.76,0.06-1.14,0.09
			c0.41-0.26,0.81-0.55,1.23-0.79c4.46-2.42,8.3-5.56,11.13-9.81c4.06-6.09,5.7-12.98,5.77-20.13c0.08-9.17-0.23-18.35-0.66-27.52
			c-0.17-3.63-0.87-7.28-1.8-10.8C116.32,45.81,114.87,43.76,113.8,41.61z"/>
		<path class="st9" d="M113.8,41.61c1.07,2.15,2.52,4.2,3.12,6.48c0.93,3.52,1.63,7.18,1.8,10.8c0.43,9.16,0.74,18.35,0.66,27.52
			c-0.06,7.15-1.71,14.04-5.77,20.13c-2.83,4.25-6.67,7.39-11.13,9.81c-0.43,0.23-0.82,0.52-1.23,0.79
			c-2.85,0.53-5.68,1.3-8.55,1.53c-8.88,0.71-17.7,0.41-26.32-2.19c-12.13-3.66-20.08-12.95-20.97-25.56
			c-0.55-7.73-0.36-15.52-0.21-23.28c0.1-5.05,0.44-10.14,1.19-15.13c0.87-5.79,3.48-10.84,8.01-14.76
			c1.28-1.11,2.36-1.39,4.07-0.62c8.95,4.02,18.3,6.78,28.04,8.1c1.85,0.25,3.73,0.29,5.6,0.43c1.72,0.13,2.72-0.64,2.98-2.34
			c2.13-0.13,4.27-0.26,6.4-0.39c0.88,1.8,1.62,2.29,3.51,1.72C107.95,43.74,110.86,42.63,113.8,41.61z M86.07,106.9
			c0.74-0.07,2.23-0.18,3.69-0.38c7.47-1,13.01-7.37,12.98-14.91c-0.01-2.24-1.36-3.27-3.56-2.76c-9.26,2.14-18.51,2.16-27.76-0.04
			c-2-0.48-3.47,0.54-3.43,2.58c0.1,4.85,1.74,9.03,5.71,12.07C77.13,106.09,81.12,106.84,86.07,106.9z M65.31,63.47
			C61,63.48,57.86,66.66,57.89,71c0.02,3.96,3.38,7.31,7.39,7.35c4.04,0.05,7.5-3.37,7.51-7.4C72.79,66.62,69.63,63.46,65.31,63.47z
			 M105.42,63.43c-4.33,0.02-7.51,3.22-7.48,7.5c0.03,4.13,3.29,7.36,7.47,7.42c3.99,0.05,7.41-3.4,7.41-7.49
			C112.83,66.72,109.53,63.41,105.42,63.43z M62.23,53.12c-0.01,0.06-0.03,0.12-0.04,0.18c-1.43,0.06-2.86,0.1-4.28,0.2
			c-1.97,0.14-3.03,1.09-2.98,2.56c0.05,1.56,1.3,2.52,3.28,2.44c5.3-0.23,10.54,0.19,15.73,1.27c1.74,0.36,3.13-0.46,3.43-1.97
			c0.27-1.39-0.66-2.64-2.42-2.91C70.71,54.24,66.47,53.7,62.23,53.12z M108.38,53.29c-0.01-0.05-0.03-0.11-0.04-0.16
			c-4.18,0.58-8.37,1.11-12.55,1.76c-1.78,0.28-2.7,1.49-2.45,2.89c0.29,1.57,1.68,2.25,3.57,1.99c3.42-0.48,6.85-0.92,10.29-1.22
			c1.96-0.17,3.96,0.01,5.93-0.03c1.51-0.03,2.59-1.06,2.65-2.41c0.06-1.34-0.94-2.43-2.46-2.55
			C111.68,53.42,110.03,53.37,108.38,53.29z M87.7,70.19c-0.05-1.51-0.73-2.35-1.9-2.64c-1.35-0.33-2.44,0.25-2.92,1.53
			c-1.38,3.74-2.72,7.49-3.96,11.27c-0.58,1.77,0.15,3.09,1.68,3.52c1.45,0.41,2.53-0.47,3.14-2.32c1.12-3.37,2.35-6.7,3.52-10.05
			C87.45,71.01,87.6,70.49,87.7,70.19z"/>
		<path class="st10" d="M49.92,167.47c-11.21,0.01-22.42,0.02-33.64,0.03c1.84-4.38,3.37-8.92,5.59-13.11
			c3.27-6.16,9.03-9.22,14.97-10.87c2.1,1.06,3.73,2.24,5.55,2.71c3.32,0.86,6.71-1.02,8.07-4.19c0.36-0.84,0.77-1.21,1.64-1.27
			c4.67-0.28,9.34-0.6,14.01-0.84c0.47-0.02,1.02,0.3,1.45,0.59c6.19,4.29,13.1,5.69,20.5,5.18c5.07-0.35,9.78-1.84,14.14-4.44
			c3.08,0.3,6.18,0.51,9.24,0.94c3.22,0.46,6.41,1.15,9.62,1.74c0,0,0.03,0.03,0.03,0.03c0.1,0.1,0.21,0.21,0.31,0.31
			c1.77,1.6,3.89,2.24,6.24,2.24c0.37,0.23,0.72,0.51,1.11,0.7c4.51,2.2,8.44,5.13,11.56,9.1c2.61,3.32,4.61,6.95,5.63,11.08
			c-8.48,0.02-16.97,0.04-25.45,0.05c0.65-2.37,1.38-4.72,1.93-7.11c0.5-2.18-0.27-3.2-2.46-3.54c-12.01-1.82-24.1-2.4-36.23-2.3
			c-3.53,0.03-7.05,0.13-10.58,0.26c-2.35,0.08-2.64,0.36-3.3,2.63c-1.77,0.12-3.55,0.23-5.32,0.35c-0.5-1.88-1.78-2.48-3.62-2.24
			c-3.64,0.47-7.3,0.86-10.94,1.35c-1.48,0.2-2.35,1.4-2.03,3.01c0.46,2.24,1.14,4.44,1.73,6.66
			C49.76,166.85,49.84,167.16,49.92,167.47z"/>
		<path class="st6" d="M94.32,139.31c-7.93,2.86-15.49,1.86-22.65-2.03c1.02-2.28,2.28-4.38,2.89-6.65c0.6-2.24,0.53-4.65,0.76-7
			c4.35,0.12,8.87,0.25,13.4,0.37c0.92,0.01,0.95,0.61,0.99,1.34c0.1,1.58,0.25,3.17,0.48,4.74
			C90.72,133.53,92.33,136.51,94.32,139.31z"/>
		<path class="st11" d="M145.93,167.41c-1.03-4.12-3.02-7.76-5.63-11.08c-3.12-3.97-7.05-6.9-11.56-9.1
			c-0.39-0.19-0.74-0.46-1.11-0.7c2.11-0.53,4.01-1.4,5.21-3.22c9.99,2.16,16.01,8.51,19.34,17.74c0.78,2.16,1.52,4.33,2.27,6.49
			C151.61,167.51,148.77,167.46,145.93,167.41z"/>
		<path class="st12" d="M101.46,42.92c-2.13,0.13-4.27,0.26-6.4,0.39c-0.36-1.97-1.03-2.53-3.05-2.65
			c-1.03-0.06-2.05-0.22-3.07-0.34c3.19-0.77,6.45-1.32,9.55-2.36c13.56-4.55,22.38-13.94,27.23-27.24c0.18-0.51,0.24-1.06,0.35-1.6
			c0.21,0.05,0.6,0.13,0.6,0.16c-0.66,6.03-1.88,11.9-4.81,17.3c-2.57,4.72-6.15,8.43-11.01,10.74c-2.16,1.02-4.49,1.7-6.79,2.39
			C102.05,40.34,101.56,40.82,101.46,42.92z"/>
		<path class="st13" d="M39.97,84.42c-4.15-0.54-7.68-4.84-7.9-9.28c-0.27-5.42,2.98-9.9,7.9-11.11
			C39.97,70.78,39.97,77.58,39.97,84.42z"/>
		<path class="st14" d="M69.14,130.88c-1.15,3.26-2.24,4-5.35,4.14c-4.07,0.19-8.13,0.55-12.19,0.75c-0.52,0.03-1.17-0.3-1.57-0.67
			c-0.75-0.7-1.37-1.55-2.05-2.35C50.75,129.5,59.11,128.29,69.14,130.88z"/>
		<path class="st14" d="M101.55,130.78c7.34-1.39,14.53-2.69,21.31,1.55c-0.9,1.05-1.67,2.03-2.55,2.91
			c-0.31,0.31-0.9,0.51-1.35,0.49c-4.07-0.21-8.13-0.52-12.2-0.72C103.79,134.86,102.61,134,101.55,130.78z"/>
		<path class="st15" d="M94.32,139.31c-1.99-2.8-3.6-5.78-4.13-9.23c-0.24-1.57-0.39-3.15-0.48-4.74c-0.04-0.73-0.07-1.33-0.99-1.34
			c2.23-0.19,4.47-0.38,6.92-0.59c-0.38,4.91,0.33,9.53,3.85,13.73C97.66,137.91,95.99,138.61,94.32,139.31z"/>
		<path class="st16" d="M121.05,143.96c-3.2-0.59-6.39-1.28-9.62-1.74c-3.06-0.44-6.16-0.64-9.24-0.94c1.02-1.15,2.26-1.48,3.8-1.36
			c3.99,0.32,7.99,0.5,11.98,0.74c0.99,0.06,1.76,0.32,2.05,1.46C120.19,142.77,120.7,143.35,121.05,143.96z"/>
		<path class="st17" d="M43.32,136.69c0.83,0.37,2.04,0.53,2.4,1.17c0.38,0.67,0.25,2.03-0.23,2.65c-0.44,0.57-1.64,0.55-2.5,0.79
			C44.56,139.86,43.69,138.26,43.32,136.69z"/>
		<path class="st17" d="M126.39,136.69c0.83,0.37,2.04,0.53,2.4,1.17c0.38,0.67,0.25,2.03-0.23,2.65c-0.44,0.57-1.64,0.55-2.5,0.79
			C127.63,139.86,126.75,138.26,126.39,136.69z"/>
		<path class="st18" d="M43.32,136.69c0.36,1.57,1.24,3.17-0.34,4.6c-1.37-0.3-1.81-1.26-1.69-2.53
			C41.4,137.55,42.02,136.77,43.32,136.69z"/>
		<path class="st18" d="M126.39,136.69c0.36,1.57,1.24,3.17-0.34,4.6c-1.37-0.3-1.81-1.26-1.69-2.53
			C124.47,137.55,125.09,136.77,126.39,136.69z"/>
		<path class="st16" d="M121.39,144.3c-0.1-0.1-0.21-0.21-0.31-0.31C121.18,144.09,121.28,144.2,121.39,144.3z"/>
		<path class="st19" d="M64.53,157.76c1.77-0.12,3.55-0.23,5.32-0.35c0.83,2.07,1.53,2.34,3.76,2.35
			c9.08,0.02,18.17,0.04,27.25,0.28c4.78,0.13,9.54,0.71,14.31,1.1c0.59,0.05,1.17,0.2,1.89,0.33c-0.68,2.16-1.32,4.18-1.96,6.19
			c-19.94,0-39.87,0-59.81,0c-0.62-1.98-1.23-3.97-1.93-6.2c1.74-0.23,3.34-0.46,4.95-0.64c1.26-0.15,2.52-0.21,3.78-0.37
			C63.66,160.26,64.34,159.21,64.53,157.76z"/>
		<path class="st20" d="M95.44,33.93c-2.96-0.48-6.22-0.96-9.45-1.54c-1.77-0.32-2.57-1.46-2.3-3.01c0.25-1.43,1.57-2.18,3.3-1.9
			c2.38,0.39,4.76,0.83,7.15,1.11c3.05,0.36,6.04-0.04,8.9-1.15c3.08-1.2,5.25-3.32,6.38-6.47c0.6-1.68,1.74-2.39,3.07-1.98
			c1.51,0.46,2.23,1.85,1.63,3.56c-2.02,5.82-6.34,9.07-12.15,10.46C99.95,33.49,97.85,33.6,95.44,33.93z"/>
		<path class="st15" d="M126.55,31.18c4.12,3.93,6.44,8.85,7.71,14.29c1.02,4.39,0.94,8.85,0.35,13.31
			c-0.04,0.32-0.18,0.62-0.27,0.93c-1.18-0.3-2.32-0.5-3.36-0.92c-0.39-0.16-0.57-0.84-0.84-1.28c0.08-2.44,0.23-4.89,0.24-7.33
			c0.02-6.06-1.56-11.8-3.64-17.44C126.57,32.27,126.61,31.71,126.55,31.18z"/>
		<path class="st21" d="M126.55,31.18c0.06,0.52,0.01,1.09,0.19,1.56c2.08,5.64,3.66,11.38,3.64,17.44
			c-0.01,2.44-0.16,4.89-0.24,7.33c-0.63-3.45-1-6.98-1.94-10.34c-1.22-4.33-3.67-7.98-7.43-10.52c1.55-2.06,3.05-4.08,4.59-6.06
			c0.08-0.1,0.45,0.03,0.69,0.05C126.22,30.83,126.38,31,126.55,31.18L126.55,31.18z"/>
		<path class="st22" d="M131.35,64.2c4.45,1.05,7.72,5.66,7.47,10.54c-0.23,4.56-2.87,8.3-6.81,9.57c-0.28,0.09-0.68-0.19-1.03-0.29
			c0.22-0.15,0.5-0.26,0.67-0.46c3.5-4.04,4.09-11.84,1.29-16.38C132.34,66.23,131.87,65.19,131.35,64.2z"/>
		<path class="st8" d="M131.35,64.2c0.52,1,0.99,2.03,1.58,2.98c2.81,4.54,2.21,12.34-1.29,16.38c-0.17,0.2-0.44,0.31-0.67,0.46
			c-0.16-6.67-0.32-13.34-0.48-20.11C130.77,64,131.06,64.1,131.35,64.2z"/>
		<path class="st15" d="M126.55,31.18c-0.17-0.18-0.34-0.35-0.5-0.53C126.22,30.83,126.38,31,126.55,31.18z"/>
		<path class="st23" d="M86.07,106.9c-4.94-0.06-8.94-0.81-12.37-3.44c-3.96-3.04-5.6-7.22-5.71-12.07
			c-0.04-2.05,1.43-3.06,3.43-2.58c9.25,2.2,18.51,2.18,27.76,0.04c2.19-0.51,3.55,0.52,3.56,2.76c0.03,7.54-5.5,13.91-12.98,14.91
			C88.29,106.72,86.81,106.82,86.07,106.9z M73.41,94.44c1.07,3.63,3.3,5.79,6.66,6.75c3.52,1.01,7.07,1.01,10.59-0.01
			c3.38-0.98,5.62-3.13,6.6-6.74C89.26,95.74,81.43,95.73,73.41,94.44z"/>
		<path class="st23" d="M65.31,63.47c4.32-0.01,7.48,3.15,7.47,7.49c0,4.03-3.47,7.45-7.51,7.4c-4.01-0.05-7.37-3.39-7.39-7.35
			C57.86,66.66,61,63.48,65.31,63.47z M65.36,73.34c1.36-0.02,2.49-1.18,2.46-2.54c-0.03-1.36-1.18-2.41-2.59-2.36
			c-1.31,0.04-2.38,1.13-2.37,2.42C62.85,72.22,64,73.36,65.36,73.34z"/>
		<path class="st23" d="M105.42,63.43c4.11-0.02,7.41,3.29,7.41,7.43c0,4.09-3.42,7.54-7.41,7.49c-4.19-0.05-7.44-3.29-7.47-7.42
			C97.91,66.65,101.09,63.46,105.42,63.43z M105.38,73.36c1.34-0.01,2.49-1.19,2.47-2.54c-0.02-1.39-1.13-2.42-2.56-2.39
			c-1.32,0.03-2.38,1.09-2.4,2.39C102.88,72.16,104.06,73.37,105.38,73.36z"/>
		<path class="st24" d="M62.23,53.12c4.24,0.58,8.48,1.12,12.71,1.77c1.76,0.27,2.69,1.52,2.42,2.91c-0.3,1.51-1.68,2.34-3.43,1.97
			c-5.19-1.09-10.43-1.51-15.73-1.27c-1.97,0.09-3.23-0.87-3.28-2.44c-0.05-1.47,1.02-2.42,2.98-2.56c1.42-0.1,2.85-0.14,4.28-0.2
			C62.2,53.24,62.22,53.18,62.23,53.12z"/>
		<path class="st24" d="M108.38,53.29c1.65,0.08,3.3,0.13,4.94,0.26c1.52,0.12,2.52,1.21,2.46,2.55c-0.06,1.35-1.14,2.38-2.65,2.41
			c-1.98,0.04-3.97-0.14-5.93,0.03c-3.44,0.3-6.87,0.74-10.29,1.22c-1.89,0.27-3.28-0.42-3.57-1.99c-0.26-1.39,0.66-2.61,2.45-2.89
			c4.17-0.64,8.36-1.18,12.55-1.76C108.35,53.18,108.37,53.24,108.38,53.29z"/>
		<path class="st25" d="M87.7,70.19c-0.1,0.3-0.25,0.82-0.43,1.33c-1.18,3.35-2.4,6.68-3.52,10.05c-0.62,1.85-1.7,2.73-3.14,2.32
			c-1.53-0.43-2.26-1.76-1.68-3.52c1.25-3.78,2.58-7.54,3.96-11.27c0.47-1.28,1.57-1.87,2.92-1.53
			C86.97,67.84,87.65,68.68,87.7,70.19z"/>
		<path class="st26" d="M73.41,94.44c8.02,1.3,15.85,1.3,23.84,0.01c-0.97,3.61-3.22,5.76-6.6,6.74c-3.51,1.02-7.07,1.01-10.59,0.01
			C76.72,100.22,74.48,98.07,73.41,94.44z"/>
		<path class="st27" d="M65.36,73.34c-1.36,0.02-2.5-1.12-2.51-2.49c0-1.29,1.06-2.37,2.37-2.42c1.41-0.05,2.56,1,2.59,2.36
			C67.84,72.16,66.72,73.32,65.36,73.34z"/>
		<path class="st27" d="M105.38,73.36c-1.32,0.01-2.5-1.2-2.48-2.54c0.01-1.3,1.08-2.36,2.4-2.39c1.43-0.03,2.54,1,2.56,2.39
			C107.87,72.17,106.72,73.35,105.38,73.36z"/>
	</g>
</g>
</svg>
